<?xml version="1.0" standalone="no"?>
<!DOCTYPE svg PUBLIC "-//W3C//DTD SVG 20010904//EN"
 "http://www.w3.org/TR/2001/REC-SVG-20010904/DTD/svg10.dtd">
<svg version="1.0" xmlns="http://www.w3.org/2000/svg"
 width="128.000000pt" height="128.000000pt" viewBox="0 0 128.000000 128.000000"
 preserveAspectRatio="xMidYMid meet">
<metadata>
Created by potrace 1.12, written by Peter Selinger 2001-2015
</metadata>
<g transform="translate(0.000000,128.000000) scale(0.100000,-0.100000)"
fill="#000000" stroke="none">
<path d="M515 1256 c-136 -32 -226 -81 -318 -173 -72 -72 -128 -165 -159 -263
-32 -105 -32 -255 0 -360 63 -202 220 -359 422 -422 105 -32 255 -32 360 0
202 63 359 220 422 422 32 105 32 255 0 360 -45 143 -147 277 -273 356 -121
76 -321 111 -454 80z m-45 -125 c-5 -11 -10 -24 -10 -29 0 -5 41 -25 90 -45
l90 -37 90 37 c50 20 90 40 90 45 0 5 -5 18 -10 29 -10 17 -8 18 15 9 79 -30
177 -100 221 -157 l27 -36 -26 7 c-28 7 -27 12 -42 -137 -7 -63 -13 -53 92
-170 33 -37 35 -38 54 -21 18 17 19 16 19 -22 0 -58 -26 -149 -62 -215 -30
-57 -48 -68 -48 -28 0 16 -4 18 -27 12 -16 -4 -59 -14 -98 -23 l-70 -16 -52
-84 -52 -85 22 -17 22 -16 -30 -9 c-39 -10 -231 -10 -270 0 l-30 9 22 16 22
17 -52 85 -52 84 -70 16 c-39 9 -82 19 -97 23 -24 6 -28 4 -28 -12 0 -40 -18
-29 -48 28 -36 66 -62 157 -62 215 0 39 0 39 20 21 12 -11 24 -15 28 -9 5 5
34 39 66 76 l58 67 -7 58 c-15 149 -14 144 -42 137 l-26 -7 27 36 c36 47 118
110 186 141 66 31 63 31 50 7z"/>
<path d="M530 771 c-58 -43 -105 -85 -104 -92 1 -8 18 -67 40 -131 l38 -118
136 0 135 0 42 127 c23 69 40 129 38 133 -5 8 -213 160 -218 159 -1 0 -49 -35
-107 -78z"/>
</g>
</svg>
